<?xml version="1.0" encoding="UTF-8"?>
<svg width="100%" height="100%" viewBox="0 0 994 219" version="1.1" xmlns="http://www.w3.org/2000/svg" id="pickabu-logo">
    <!-- Generator: Sketch 59.1 (86144) - https://sketch.com -->
    <title>Group 2</title>
    <desc>Created with Sketch.</desc>
    <defs>
        <linearGradient x1="3.76084396%" y1="41.4640053%" x2="94.3258096%" y2="61.4246947%" id="linearGradient-1">
            <stop stop-color="#DD571D" offset="0%"></stop>
            <stop stop-color="#DF6132" offset="64.5%"></stop>
        </linearGradient>
        <linearGradient x1="2630.78661%" y1="1881.40532%" x2="7798.77743%" y2="5519.70319%" id="linearGradient-2">
            <stop stop-color="#DD571D" offset="0%"></stop>
            <stop stop-color="#DF6132" offset="64.5%"></stop>
        </linearGradient>
        <linearGradient x1="-766.196962%" y1="-406.152815%" x2="-150.34524%" y2="-56.1016377%" id="linearGradient-3">
            <stop stop-color="#DD571D" offset="0%"></stop>
            <stop stop-color="#DF6132" offset="64.5%"></stop>
        </linearGradient>
        <radialGradient cx="43.0577395%" cy="74.6560346%" fx="43.0577395%" fy="74.6560346%" r="88.41428%" gradientTransform="translate(0.430577,0.746560),scale(0.597461,1.000000),rotate(3.955416),translate(-0.430577,-0.746560)" id="radialGradient-4">
            <stop stop-color="#BD350E" offset="0%"></stop>
            <stop stop-color="#BF3710" stop-opacity="0.5092" offset="43.73%"></stop>
            <stop stop-color="#C43E15" stop-opacity="0.304" offset="62.02%"></stop>
            <stop stop-color="#CE4B20" stop-opacity="0.1522" offset="75.55%"></stop>
            <stop stop-color="#DB5C2E" stop-opacity="0.02740294" offset="86.67%"></stop>
            <stop stop-color="#DF6132" stop-opacity="0" offset="89.11%"></stop>
        </radialGradient>
        <radialGradient cx="-71.6532221%" cy="-115.503291%" fx="-71.6532221%" fy="-115.503291%" r="256.307433%" gradientTransform="translate(-0.716532,-1.155033),scale(0.639319,1.000000),rotate(3.955416),translate(0.716532,1.155033)" id="radialGradient-5">
            <stop stop-color="#BD350E" offset="0%"></stop>
            <stop stop-color="#BF3710" stop-opacity="0.5092" offset="43.73%"></stop>
            <stop stop-color="#C43E15" stop-opacity="0.304" offset="62.02%"></stop>
            <stop stop-color="#CE4B20" stop-opacity="0.1522" offset="75.55%"></stop>
            <stop stop-color="#DB5C2E" stop-opacity="0.02740294" offset="86.67%"></stop>
            <stop stop-color="#DF6132" stop-opacity="0" offset="89.11%"></stop>
        </radialGradient>
        <radialGradient cx="337.446613%" cy="65.5559331%" fx="337.446613%" fy="65.5559331%" r="313.000147%" gradientTransform="translate(3.374466,0.655559),scale(1.000000,0.290693),rotate(3.955416),translate(-3.374466,-0.655559)" id="radialGradient-6">
            <stop stop-color="#BD350E" offset="0%"></stop>
            <stop stop-color="#BF3710" stop-opacity="0.5092" offset="43.73%"></stop>
            <stop stop-color="#C43E15" stop-opacity="0.304" offset="62.02%"></stop>
            <stop stop-color="#CE4B20" stop-opacity="0.1522" offset="75.55%"></stop>
            <stop stop-color="#DB5C2E" stop-opacity="0.02740294" offset="86.67%"></stop>
            <stop stop-color="#DF6132" stop-opacity="0" offset="89.11%"></stop>
        </radialGradient>
        <linearGradient x1="19.0417567%" y1="47.8914864%" x2="74.0751401%" y2="71.220893%" id="linearGradient-7">
            <stop stop-color="#DD571D" offset="0%"></stop>
            <stop stop-color="#DF6132" offset="64.5%"></stop>
        </linearGradient>
        <radialGradient cx="45.2377259%" cy="46.2927422%" fx="45.2377259%" fy="46.2927422%" r="63.5984474%" gradientTransform="translate(0.452377,0.462927),scale(0.798964,1.000000),rotate(3.955416),translate(-0.452377,-0.462927)" id="radialGradient-8">
            <stop stop-color="#BD350E" offset="0%"></stop>
            <stop stop-color="#BF3710" stop-opacity="0.5092" offset="43.73%"></stop>
            <stop stop-color="#C43E15" stop-opacity="0.304" offset="62.02%"></stop>
            <stop stop-color="#CE4B20" stop-opacity="0.1522" offset="75.55%"></stop>
            <stop stop-color="#DB5C2E" stop-opacity="0.02740294" offset="86.67%"></stop>
            <stop stop-color="#DF6132" stop-opacity="0" offset="89.11%"></stop>
        </radialGradient>
        <radialGradient cx="-5.34803269%" cy="36.3478983%" fx="-5.34803269%" fy="36.3478983%" r="104.094131%" gradientTransform="translate(-0.053480,0.363479),scale(1.000000,0.644098),translate(0.053480,-0.363479)" id="radialGradient-9">
            <stop stop-color="#E05E21" offset="0%"></stop>
            <stop stop-color="#DF602A" stop-opacity="0.3662" offset="56.47%"></stop>
            <stop stop-color="#DF6132" stop-opacity="0" offset="89.11%"></stop>
        </radialGradient>
        <radialGradient cx="8.76212059%" cy="32.1720029%" fx="8.76212059%" fy="32.1720029%" r="88.0716702%" gradientTransform="translate(0.087621,0.321720),scale(1.000000,0.689439),rotate(-4.489630),translate(-0.087621,-0.321720)" id="radialGradient-10">
            <stop stop-color="#E05E21" offset="0%"></stop>
            <stop stop-color="#DF602A" stop-opacity="0.3662" offset="56.47%"></stop>
            <stop stop-color="#DF6132" stop-opacity="0" offset="89.11%"></stop>
        </radialGradient>
        <radialGradient cx="87.5900688%" cy="60.3844529%" fx="87.5900688%" fy="60.3844529%" r="81.7702689%" gradientTransform="translate(0.875901,0.603845),scale(1.000000,0.756778),rotate(-117.794479),translate(-0.875901,-0.603845)" id="radialGradient-11">
            <stop stop-color="#E05E21" offset="0%"></stop>
            <stop stop-color="#DF602A" stop-opacity="0.3662" offset="56.47%"></stop>
            <stop stop-color="#DF6132" stop-opacity="0" offset="89.11%"></stop>
        </radialGradient>
        <radialGradient cx="52.6539629%" cy="19.6420682%" fx="52.6539629%" fy="19.6420682%" r="109.477345%" gradientTransform="translate(0.526540,0.196421),scale(0.769912,1.000000),rotate(-62.033479),translate(-0.526540,-0.196421)" id="radialGradient-12">
            <stop stop-color="#FFE491" offset="0%"></stop>
            <stop stop-color="#FFE491" offset="12.93%"></stop>
            <stop stop-color="#F9C16E" offset="29.93%"></stop>
            <stop stop-color="#F19645" offset="52.79%"></stop>
            <stop stop-color="#EE8635" offset="64.5%"></stop>
        </radialGradient>
        <radialGradient cx="39.2517169%" cy="18.7508902%" fx="39.2517169%" fy="18.7508902%" r="38.1102119%" gradientTransform="translate(0.392517,0.187509),scale(0.770000,1.000000),rotate(-59.685351),translate(-0.392517,-0.187509)" id="radialGradient-13">
            <stop stop-color="#E74C29" offset="0%"></stop>
            <stop stop-color="#DE4926" offset="25.91%"></stop>
            <stop stop-color="#C7421C" offset="67.3%"></stop>
            <stop stop-color="#B03B13" offset="100%"></stop>
        </radialGradient>
    </defs>
    <g id="Page-1" stroke="none" stroke-width="1" fill="none" fill-rule="evenodd">
        <g id="Group-2" transform="translate(-17.000000, 0.000000)" fill-rule="nonzero">
            <path d="M379.2,66.4 L379.2,69.8 C384.6,63.2 390,58.4 395.8,55.4 C401.6,52.4 408,50.8 415.4,50.8 C424.2,50.8 432.2,53 439.4,57.6 C446.8,62 452.6,68.6 456.8,77.4 C461,86 463.2,96.2 463.2,108.2 C463.2,117 462,125 459.6,132.2 C457.2,139.4 453.8,145.6 449.4,150.6 C445.2,155.6 440,159.4 434.2,162 C428.4,164.6 422,166 415.4,166 C407.4,166 400.6,164.4 395,161.2 C389.4,158 384.2,153.2 379.2,146.8 L379.2,189.4 C379.2,201.8 374.6,208 365.6,208 C360.2,208 356.8,206.4 355,203.2 C353.2,200 352.4,195.2 352.4,189.2 L352.4,67 C352.4,61.6 353.6,57.6 356,55 C358.4,52.4 361.6,51 365.6,51 C369.6,51 372.8,52.4 375.4,55 C378,57.4 379.2,61.2 379.2,66.4 Z M434.8,107.6 C434.8,100.2 433.6,93.8 431.4,88.4 C429.2,83 426,79 422,76 C418,73.2 413.4,71.6 408.6,71.6 C400.8,71.6 394.2,74.6 388.8,80.8 C383.4,87 380.8,96 380.8,108 C380.8,119.2 383.4,128 388.8,134.4 C394.2,140.6 400.8,143.8 408.6,143.8 C413.4,143.8 417.6,142.4 421.6,139.8 C425.6,137 428.8,133 431.2,127.6 C433.6,122 434.8,115.4 434.8,107.6 Z" id="Shape" fill="#212121"></path>
            <path d="M500.2,37.4 C496.2,37.4 492.8,36.2 490,33.8 C487.2,31.4 485.8,28 485.8,23.6 C485.8,19.6 487.2,16.2 490.2,13.6 C493,11 496.4,9.8 500.2,9.8 C503.8,9.8 507.2,11 510,13.4 C512.8,15.8 514.2,19.2 514.2,23.6 C514.2,28 512.8,31.4 510,33.8 C507.4,36 504,37.4 500.2,37.4 Z M514.2,66.6 L514.2,148.4 C514.2,154 512.8,158.4 510.2,161.2 C507.6,164.2 504,165.6 500,165.6 C496,165.6 492.4,164.2 489.8,161.2 C487.2,158.2 486,154 486,148.4 L486,67.4 C486,61.8 487.2,57.6 489.8,54.8 C492.4,52 495.8,50.6 500,50.6 C504.2,50.6 507.6,52 510.2,54.8 C513,57.6 514.2,61.6 514.2,66.6 Z" id="Shape" fill="#212121"></path>
            <path d="M614,152.6 L589,111.6 L573.6,126.2 L573.6,148.8 C573.6,154.2 572.2,158.4 569.2,161.4 C566.4,164.4 563,165.8 559.2,165.8 C554.8,165.8 551.4,164.4 549,161.4 C546.6,158.4 545.2,154.2 545.2,148.6 L545.2,27.8 C545.2,21.6 546.4,16.8 548.8,13.4 C551.2,10.2 554.6,8.4 559.2,8.4 C563.6,8.4 567,9.8 569.6,12.8 C572.2,15.8 573.4,20.2 573.4,26 L573.4,94.6 L605.2,61.2 C609.2,57 612.2,54.2 614.2,52.6 C616.2,51 618.8,50.4 621.8,50.4 C625.4,50.4 628.2,51.6 630.6,53.8 C633,56 634.2,58.8 634.2,62.2 C634.2,66.4 630.4,71.8 622.6,78.8 L607.6,92.6 L636.6,138.2 C638.8,141.6 640.2,144.2 641.2,146 C642.2,147.8 642.6,149.4 642.6,151 C642.6,155.4 641.4,159 639,161.6 C636.6,164.2 633.4,165.4 629.2,165.4 C625.8,165.4 623,164.4 621.2,162.6 C619.8,161 617.2,157.6 614,152.6 Z" id="Path" fill="#212121"></path>
            <path d="M728.8,149.6 C722,155 715.4,159 709,161.6 C702.6,164.2 695.4,165.6 687.4,165.6 C680.2,165.6 673.8,164.2 668.2,161.2 C662.8,158.4 658.4,154.4 655.4,149.6 C652.4,144.6 651,139.4 651,133.6 C651,125.8 653.4,119.2 658.4,113.8 C663.4,108.4 670,104.6 678.6,102.8 C680.4,102.4 684.8,101.4 692,100 C699.2,98.6 705.2,97.2 710.4,96 C715.4,94.8 721,93.4 727,91.6 C726.6,84.2 725.2,78.6 722.4,75.2 C719.8,71.8 714.2,70 705.8,70 C698.6,70 693.2,71 689.6,73 C686,75 682.8,78 680.2,82 C677.6,86 675.8,88.6 674.6,90 C673.6,91.2 671.2,92 667.6,92 C664.4,92 661.6,91 659.4,89 C657,87 656,84.4 656,81.2 C656,76.2 657.8,71.4 661.2,66.6 C664.8,61.8 670.2,58 677.6,55 C685,52 694.4,50.4 705.6,50.4 C718,50.4 727.8,51.8 735,54.8 C742.2,57.8 747.2,62.4 750,68.8 C753,75.2 754.4,83.6 754.4,94.2 C754.4,100.8 754.4,106.4 754.4,111.2 C754.4,115.8 754.4,121 754.2,126.6 C754.2,132 755,137.4 756.8,143.2 C758.6,149 759.4,152.6 759.4,154.4 C759.4,157.4 758,160 755.4,162.4 C752.6,164.8 749.6,166 746.2,166 C743.2,166 740.4,164.6 737.6,162 C735,158.8 732,154.8 728.8,149.6 Z M727,108.6 C722.8,110.2 716.8,111.8 708.8,113.4 C700.8,115 695.4,116.4 692.4,117.2 C689.4,118 686.4,119.6 683.6,121.8 C680.8,124.2 679.4,127.4 679.4,131.6 C679.4,135.8 681,139.6 684.2,142.6 C687.4,145.6 691.8,147.2 697,147.2 C702.6,147.2 707.8,146 712.6,143.6 C717.4,141.2 720.8,138 723,134.2 C725.6,130 726.8,122.8 726.8,113 L726.8,108.6 L727,108.6 Z" id="Shape" fill="#212121"></path>
            <path d="M806.8,24.6 L806.8,67.8 C812.2,62.2 817.6,58 823,55 C828.6,52 835.4,50.6 843.6,50.6 C853,50.6 861.2,52.8 868.4,57.2 C875.6,61.6 881,68.2 884.8,76.6 C888.8,85 890.6,95.2 890.6,106.8 C890.6,115.4 889.6,123.2 887.4,130.4 C885.2,137.6 882,143.8 878,149 C873.8,154.2 868.8,158.4 863,161.2 C857,164 850.6,165.6 843.4,165.6 C839,165.6 835,165 831.2,164 C827.4,163 824,161.6 821.4,160 C818.8,158.4 816.4,156.6 814.4,154.8 C812.4,153 810,150.4 806.8,146.8 L806.8,149.6 C806.8,155 805.6,159 803,161.6 C800.4,164.4 797.2,165.6 793.2,165.6 C789.2,165.6 786,164.2 783.6,161.6 C781.2,158.8 780,154.8 780,149.6 L780,26 C780,20.2 781.2,16 783.4,13 C785.8,10 789,8.6 793.2,8.6 C797.6,8.6 801,10 803.2,12.8 C805.4,15.6 806.8,19.4 806.8,24.6 Z M808.2,108.6 C808.2,119.8 810.8,128.6 816,134.6 C821.2,140.6 828,143.6 836.2,143.6 C843.4,143.6 849.4,140.6 854.6,134.4 C859.8,128.2 862.4,119.4 862.4,107.8 C862.4,100.4 861.4,93.8 859.2,88.4 C857,83 854,78.8 850,75.8 C846,72.8 841.4,71.4 836.2,71.4 C830.8,71.4 826,72.8 821.8,75.8 C817.6,78.8 814.2,83 811.8,88.6 C809.4,94.4 808.2,101 808.2,108.6 Z" id="Shape" fill="#212121"></path>
            <path d="M984.4,149.6 L984.4,146 C981,150.2 977.4,153.8 973.8,156.8 C970,159.8 966,161.8 961.6,163.2 C957.2,164.6 952.2,165.4 946.4,165.4 C939.6,165.4 933.4,164 928,161.2 C922.6,158.4 918.4,154.4 915.4,149.4 C911.8,143.4 910.2,134.8 910.2,123.4 L910.2,67.2 C910.2,61.6 911.4,57.2 914,54.4 C916.6,51.6 920,50.2 924.2,50.2 C928.4,50.2 932,51.6 934.6,54.4 C937.2,57.2 938.6,61.4 938.6,67 L938.6,112.4 C938.6,119 939.2,124.4 940.2,129 C941.4,133.4 943.2,137 946.2,139.4 C949,142 953,143.2 957.8,143.2 C962.6,143.2 967,141.8 971.2,139 C975.4,136.2 978.4,132.4 980.4,127.8 C982,123.8 982.8,115 982.8,101.4 L982.8,67 C982.8,61.4 984.2,57.2 986.8,54.4 C989.4,51.6 992.8,50.2 997,50.2 C1001.2,50.2 1004.6,51.6 1007.2,54.4 C1009.8,57.2 1011,61.4 1011,67.2 L1011,149.2 C1011,154.6 1009.8,158.6 1007.4,161.4 C1005,164 1001.8,165.4 998,165.4 C994.2,165.4 991,164 988.4,161.2 C985.8,158.4 984.4,154.8 984.4,149.6 Z" id="Path" fill="#212121"></path>
            <g id="Layer_2-Copy-2">
                <g id="Layer_6" transform="translate(0.000000, 59.000000)">
                    <g id="Group">
                        <path d="M69.4157457,141.366234 C53.9589242,133.792208 40.5702689,124.207792 29.7784841,113.563636 C33.7904156,119.407792 39.1552078,125.18961 46.3549144,131.236364 C69.446846,150.638961 95.3222494,158.431169 114.231198,159.522078 C123.34357,160.051948 132.378191,158.742857 140.697506,156.436364 C118.989535,158.150649 93.7983374,153.319481 69.4157457,141.366234 Z" id="Path" fill="url(#linearGradient-1)"></path>
                        <path d="M23.7294866,10.1454545 C23.7294866,10.1454545 23.6206357,10.6597403 23.4340342,11.6103896 C23.791687,11.3766234 24.16489,11.1428571 24.5380929,10.9246753 C24.2737408,10.6597403 23.9938386,10.4103896 23.7294866,10.1454545 Z" id="Path" fill="url(#linearGradient-2)"></path>
                        <path d="M211.497213,107.392208 C211.497213,107.392208 207.37643,106.722078 200.098973,105.023377 C199.943472,110.25974 199.026015,115.371429 197.284401,120.249351 C205.370465,113.096104 211.497213,107.392208 211.497213,107.392208 Z" id="Path" fill="url(#linearGradient-3)"></path>
                        <path d="M130.838729,15.5220779 C91.4969193,-3.77142857 50.0091932,-4.51948052 24.5380929,10.9246753 C91.0926161,74.774026 170.911394,98.212987 200.098973,105.023377 C201.00088,73.3402597 173.865917,36.6077922 130.838729,15.5220779 Z" id="Path" fill="url(#radialGradient-4)"></path>
                        <path d="M169.107579,143.298701 C162.063374,148.223377 152.049095,153.272727 140.697506,156.420779 C165.764303,154.425974 186.166064,143.688312 195.262885,125.064935 C196.040391,123.490909 196.709046,121.87013 197.299951,120.233766 C188.436381,128.072727 177.240293,137.625974 169.107579,143.298701 Z" id="Path" fill="url(#radialGradient-5)"></path>
                        <path d="M23.4340342,11.6103896 C15.4257213,16.7064935 9.08127139,23.4701299 5.00713936,31.8077922 C-6.96645477,56.3376623 3.88753056,87.9896104 29.7784841,113.548052 C20.9149144,100.628571 18.6445966,87.3506494 17.7271394,69.974026 C16.5608802,47.812987 22.0811736,18.4363636 23.4340342,11.6103896 Z" id="Path" fill="url(#radialGradient-6)"></path>
                        <path d="M197.284401,120.249351 C199.026015,115.371429 199.943472,110.275325 200.098973,105.023377 C170.911394,98.212987 91.0926161,74.7584416 24.5380929,10.9246753 C24.16489,11.1428571 23.791687,11.3766234 23.4340342,11.6103896 C22.0811736,18.4363636 16.5608802,47.812987 17.7271394,69.9896104 C18.6445966,87.3662338 20.9149144,100.644156 29.7784841,113.563636 C40.5702689,124.207792 53.9744743,133.807792 69.4157457,141.366234 C93.7983374,153.319481 118.989535,158.150649 140.681956,156.420779 C152.033545,153.257143 162.047824,148.207792 169.092029,143.298701 C177.240293,137.625974 188.436381,128.072727 197.284401,120.249351 Z" id="Path" fill="url(#linearGradient-7)"></path>
                        <path d="M197.284401,120.249351 C199.026015,115.371429 199.943472,110.275325 200.098973,105.023377 C170.911394,98.212987 91.0926161,74.7584416 24.5380929,10.9246753 C24.16489,11.1428571 23.791687,11.3766234 23.4340342,11.6103896 C22.0811736,18.4363636 16.5608802,47.812987 17.7271394,69.9896104 C18.6445966,87.3662338 20.9149144,100.644156 29.7784841,113.563636 C40.5702689,124.207792 53.9744743,133.807792 69.4157457,141.366234 C93.7983374,153.319481 118.989535,158.150649 140.681956,156.420779 C152.033545,153.257143 162.047824,148.207792 169.092029,143.298701 C177.240293,137.625974 188.436381,128.072727 197.284401,120.249351 Z" id="Path" fill="url(#radialGradient-8)"></path>
                    </g>
                </g>
                <g id="Layer_7" transform="translate(35.000000, 93.000000)" opacity="0.85">
                    <path d="M17.2769874,12.7593361 C17.2769874,12.7593361 2.02343096,53.526971 0.155648536,72.8215768 C-1.71213389,92.1161826 17.2769874,93.0497925 21.9464435,89.626556 C26.6158996,86.2033195 39.6903766,75.93361 55.2552301,42.9460581 C70.8200837,9.95850622 30.0401674,-16.8049793 17.2769874,12.7593361 Z" id="Path" fill="url(#radialGradient-9)"></path>
                    <path d="M64.936569,32.6607884 C64.936569,32.6607884 43.5504603,76.3537344 35.1298745,95.3993776 C27.3007531,113.137967 53.0450209,111.830913 57.4343096,108.065353 C61.8235983,104.284232 80.3457741,94.6369295 93.2801674,60.5290456 C106.214561,26.4211618 83.3186611,1.49377593 64.936569,32.6607884 Z" id="Path" fill="url(#radialGradient-10)"></path>
                    <path d="M119.429121,69.1493776 C119.429121,69.1493776 93.9183264,105.824689 75.7385774,120.544606 C60.6717992,132.743776 56.6560669,114.865145 57.5121339,109.139004 C58.3682008,103.412863 56.6249372,82.6089212 78.5713808,53.4647303 C100.517824,24.3205394 135.990126,36.9709544 119.429121,69.1493776 Z" id="Path" fill="url(#radialGradient-11)"></path>
                </g>
                <path d="M129.813003,6.28172065 C129.813003,6.28172065 87.8764913,-6.75267164 57.4336902,4.73000728 C26.9908892,16.2126862 13.012052,30.7987919 21.3993543,66.798542 C29.7866567,102.798292 113.65968,155.866889 149.072734,166.108198 C184.485788,176.349506 217.103075,178.211562 232.635117,162.073743 C248.167158,145.935924 256.740845,103.418977 210.268977,55.4710344 C163.797109,7.52309134 129.813003,6.28172065 129.813003,6.28172065 Z" id="Path" fill="url(#radialGradient-12)"></path>
                <path d="M111.266068,26.1298422 C111.266068,26.1298422 108.770644,15.4939805 119.064268,7.51708426 C129.357893,-0.459812004 152.596531,-0.929041196 176.770953,13.7734735 C200.945375,28.4759882 209.367432,42.5528639 210.771108,55.6912813 C212.174784,68.8296987 207.495863,78.6835117 186.284758,78.9963312 C165.073652,79.3091506 120.000052,59.6015246 111.266068,26.1298422 Z" id="Path" fill="url(#radialGradient-13)"></path>
            </g>
        </g>
    </g>
</svg>
